# xmcd CD database file
#
# Track frame offsets:
#	150
#	13339
#	27559
#	38327
#	50213
#	65373
#	79714
#	93409
#	106917
#	123190
#	137677
#	151672
#
# Disc length: 2322 seconds
#
# Revision: 0
# Processed by: cddbd v1.5.2PL0 Copyright (c) Steve Scherf et al.
# Submitted via: CDex 1.70beta2
#
DISCID=9209100c
DTITLE=Various (Dreyfus Jazz presents) - Jazz Reference (compilation)
DYEAR=2002
DGENRE=Jazz
TTITLE0=You Go To My Head (Billie Holiday)
TTITLE1=Swing 41 (Django Reinhardt)
TTITLE2=This Is My Night To Dream (Nat King Cole)
TTITLE3=New Blow Top Blues (Dinah Washington)
TTITLE4=Misterioso (Thelonius Monk)
TTITLE5=Can Anyone Explain (Ella Fitzgerald)
TTITLE6=Coquette (Django Reinhardt)
TTITLE7=Just One More Change (Dinah Washington)
TTITLE8=Mohawk (Thelonious Monk)
TTITLE9=I'll String Along With You (Nat King Cole)
TTITLE10=Smooth Sailin' (Ella Fitzgerald)
TTITLE11=Do Nothing Till You Hear From Me - I'll Get By (Ella Fitzgerald)
EXTD=YEAR: 2002
EXTT0=
EXTT1=
EXTT2=
EXTT3=
EXTT4=
EXTT5=
EXTT6=
EXTT7=
EXTT8=
EXTT9=
EXTT10=
EXTT11=
PLAYORDER=
